<svg width="32" height="33" viewBox="0 0 32 33" fill="none" xmlns="http://www.w3.org/2000/svg">
<mask id="mask0_12_8" style="mask-type:alpha" maskUnits="userSpaceOnUse" x="0" y="0" width="32" height="33">
<rect y="0.155762" width="32" height="32" fill="#D9D9D9"/>
</mask>
<g mask="url(#mask0_12_8)">
<path d="M6.66675 28.1558V18.8224C6.66675 18.0891 6.92786 17.4613 7.45008 16.9391C7.9723 16.4169 8.60008 16.1558 9.33341 16.1558H10.6667V13.4891H9.33341C8.60008 13.4891 7.9723 13.228 7.45008 12.7058C6.92786 12.1835 6.66675 11.5558 6.66675 10.8224V6.82243C6.66675 6.0891 6.92786 5.46132 7.45008 4.9391C7.9723 4.41687 8.60008 4.15576 9.33341 4.15576H22.6667C23.4001 4.15576 24.0279 4.41687 24.5501 4.9391C25.0723 5.46132 25.3334 6.0891 25.3334 6.82243V10.8224C25.3334 11.5558 25.0723 12.1835 24.5501 12.7058C24.0279 13.228 23.4001 13.4891 22.6667 13.4891H21.3334V16.1558H22.6667C23.4001 16.1558 24.0279 16.4169 24.5501 16.9391C25.0723 17.4613 25.3334 18.0891 25.3334 18.8224V28.1558H22.6667V24.1558H9.33341V28.1558H6.66675ZM9.33341 10.8224H22.6667V6.82243H9.33341V10.8224ZM13.3334 16.1558H18.6667V13.4891H13.3334V16.1558ZM9.33341 21.4891H22.6667V18.8224H9.33341V21.4891Z" fill="white"/>
</g>
</svg>
