<svg width="40" height="40" viewBox="0 0 40 40" fill="none" xmlns="http://www.w3.org/2000/svg">
<mask id="mask0_4_164" style="mask-type:alpha" maskUnits="userSpaceOnUse" x="0" y="0" width="40" height="40">
<rect width="40" height="40" fill="#D9D9D9"/>
</mask>
<g mask="url(#mask0_4_164)">
<path d="M3.33333 23.3333C2.41667 23.3333 1.63194 23.0069 0.979167 22.3542C0.326389 21.7014 0 20.9167 0 20V10C0 9.66667 0.0694444 9.34722 0.208333 9.04167C0.347222 8.73611 0.527778 8.47222 0.75 8.25L9 0L10.25 1.25C10.4167 1.41667 10.5556 1.63194 10.6667 1.89583C10.7778 2.15972 10.8333 2.41667 10.8333 2.66667V3L9.66667 8.33333H18.3333C18.8056 8.33333 19.2014 8.49306 19.5208 8.8125C19.8403 9.13194 20 9.52778 20 10V12.0833C20 12.25 19.9861 12.4097 19.9583 12.5625C19.9306 12.7153 19.8889 12.8611 19.8333 13L16.0833 21.8333C15.8889 22.3056 15.5764 22.6736 15.1458 22.9375C14.7153 23.2014 14.25 23.3333 13.75 23.3333H3.33333ZM13.25 20L16.6667 11.9167V11.6667H5.58333L6.58333 7.16667L3.33333 10.3333V20H13.25ZM31 40L29.75 38.75C29.5833 38.5833 29.4444 38.3681 29.3333 38.1042C29.2222 37.8403 29.1667 37.5833 29.1667 37.3333V37L30.3333 31.6667H21.6667C21.1944 31.6667 20.7986 31.5069 20.4792 31.1875C20.1597 30.8681 20 30.4722 20 30V27.9167C20 27.75 20.0139 27.5903 20.0417 27.4375C20.0694 27.2847 20.1111 27.1389 20.1667 27L23.9167 18.1667C24.1389 17.6944 24.4583 17.3264 24.875 17.0625C25.2917 16.7986 25.75 16.6667 26.25 16.6667H36.6667C37.5833 16.6667 38.3681 16.9931 39.0208 17.6458C39.6736 18.2986 40 19.0833 40 20V30C40 30.3333 39.9375 30.6458 39.8125 30.9375C39.6875 31.2292 39.5 31.5 39.25 31.75L31 40ZM26.75 20L23.3333 28.0833V28.3333H34.4167L33.4167 32.8333L36.6667 29.6667V20H26.75Z" fill="#68D585"/>
</g>
</svg>
