<svg width="203" height="31" viewBox="0 0 203 31" fill="none" xmlns="http://www.w3.org/2000/svg">
<path d="M46 0H29L36.5 7H46V0Z" fill="#CA322E"/>
<path d="M0 31H17L9.5 24H0V31Z" fill="#CA322E"/>
<path d="M24.5 0L46 19.5V28.5L27.5 12.5V31H20L0 13.5V3.5L19.5 21V0H24.5Z" fill="#CA322E"/>
<path d="M60.753 22.212C60.165 22.212 59.649 22.182 59.205 22.122C58.773 22.074 58.365 21.99 57.981 21.87C57.597 21.75 57.201 21.594 56.793 21.402V18.306C57.489 18.654 58.191 18.924 58.899 19.116C59.607 19.296 60.249 19.386 60.825 19.386C61.173 19.386 61.455 19.344 61.671 19.26C61.887 19.176 62.049 19.062 62.157 18.918C62.265 18.774 62.319 18.612 62.319 18.432C62.319 18.204 62.241 18.018 62.085 17.874C61.929 17.718 61.683 17.556 61.347 17.388C61.011 17.208 60.561 16.992 59.997 16.74C59.361 16.44 58.809 16.128 58.341 15.804C57.873 15.468 57.513 15.06 57.261 14.58C57.009 14.1 56.883 13.494 56.883 12.762C56.883 11.934 57.087 11.244 57.495 10.692C57.903 10.128 58.467 9.708 59.187 9.432C59.919 9.144 60.765 9 61.725 9C62.565 9 63.321 9.096 63.993 9.288C64.665 9.468 65.265 9.678 65.793 9.918L64.731 12.6C64.179 12.348 63.633 12.15 63.093 12.006C62.565 11.85 62.073 11.772 61.617 11.772C61.317 11.772 61.071 11.808 60.879 11.88C60.687 11.952 60.543 12.054 60.447 12.186C60.363 12.306 60.321 12.444 60.321 12.6C60.321 12.804 60.399 12.984 60.555 13.14C60.711 13.296 60.969 13.47 61.329 13.662C61.701 13.842 62.205 14.076 62.841 14.364C63.465 14.64 63.993 14.946 64.425 15.282C64.869 15.606 65.205 15.996 65.433 16.452C65.673 16.896 65.793 17.454 65.793 18.126C65.793 18.822 65.613 19.482 65.253 20.106C64.905 20.73 64.359 21.24 63.615 21.636C62.883 22.02 61.929 22.212 60.753 22.212Z" fill="white"/>
<path d="M76.8656 22.032L73.6796 9.18H77.0276L78.4316 15.624C78.4676 15.78 78.5156 16.008 78.5756 16.308C78.6356 16.596 78.6956 16.908 78.7556 17.244C78.8276 17.58 78.8936 17.91 78.9536 18.234C79.0136 18.546 79.0556 18.81 79.0796 19.026C79.1276 18.666 79.1876 18.252 79.2596 17.784C79.3436 17.316 79.4336 16.848 79.5296 16.38C79.6256 15.9 79.7156 15.456 79.7996 15.048C79.8956 14.64 79.9736 14.304 80.0336 14.04L81.1676 9.18H84.3896L85.4876 14.04C85.5476 14.292 85.6196 14.628 85.7036 15.048C85.7996 15.456 85.8956 15.9 85.9916 16.38C86.0876 16.86 86.1776 17.334 86.2616 17.802C86.3456 18.27 86.4056 18.678 86.4416 19.026C86.4776 18.726 86.5376 18.354 86.6216 17.91C86.7056 17.466 86.7896 17.034 86.8736 16.614C86.9576 16.182 87.0236 15.858 87.0716 15.642L88.4936 9.18H91.8416L88.6736 22.032H84.5696L83.3456 16.434C83.3216 16.326 83.2856 16.146 83.2376 15.894C83.1896 15.642 83.1296 15.354 83.0576 15.03C82.9976 14.706 82.9436 14.388 82.8956 14.076C82.8476 13.764 82.8116 13.5 82.7876 13.284C82.7636 13.5 82.7216 13.764 82.6616 14.076C82.6136 14.388 82.5596 14.706 82.4996 15.03C82.4396 15.354 82.3796 15.642 82.3196 15.894C82.2716 16.146 82.2356 16.326 82.2116 16.434L80.9696 22.032H76.8656Z" fill="white"/>
<path d="M99.1328 22.032L103.327 9.126H107.953L112.201 22.032H108.403L107.773 19.62H103.597L102.949 22.032H99.1328ZM104.317 16.776H107.053L106.495 14.67C106.435 14.442 106.351 14.118 106.243 13.698C106.135 13.266 106.027 12.822 105.919 12.366C105.811 11.91 105.727 11.538 105.667 11.25C105.619 11.538 105.541 11.898 105.433 12.33C105.337 12.762 105.235 13.188 105.127 13.608C105.031 14.028 104.947 14.382 104.875 14.67L104.317 16.776Z" fill="white"/>
<path d="M120.599 22.032V9.18H125.045C126.677 9.18 127.895 9.534 128.699 10.242C129.515 10.95 129.923 11.958 129.923 13.266C129.923 13.854 129.839 14.418 129.671 14.958C129.503 15.486 129.227 15.966 128.843 16.398C128.471 16.818 127.973 17.154 127.349 17.406C126.725 17.646 125.957 17.766 125.045 17.766H124.073V22.032H120.599ZM124.073 14.94H124.757C125.057 14.94 125.333 14.892 125.585 14.796C125.849 14.688 126.059 14.52 126.215 14.292C126.371 14.052 126.449 13.74 126.449 13.356C126.449 12.948 126.329 12.618 126.089 12.366C125.849 12.114 125.477 11.988 124.973 11.988H124.073V14.94Z" fill="white"/>
<path d="M142.358 22.212C141.77 22.212 141.254 22.182 140.81 22.122C140.378 22.074 139.97 21.99 139.586 21.87C139.202 21.75 138.806 21.594 138.398 21.402V18.306C139.094 18.654 139.796 18.924 140.504 19.116C141.212 19.296 141.854 19.386 142.43 19.386C142.778 19.386 143.06 19.344 143.276 19.26C143.492 19.176 143.654 19.062 143.762 18.918C143.87 18.774 143.924 18.612 143.924 18.432C143.924 18.204 143.846 18.018 143.69 17.874C143.534 17.718 143.288 17.556 142.952 17.388C142.616 17.208 142.166 16.992 141.602 16.74C140.966 16.44 140.414 16.128 139.946 15.804C139.478 15.468 139.118 15.06 138.866 14.58C138.614 14.1 138.488 13.494 138.488 12.762C138.488 11.934 138.692 11.244 139.1 10.692C139.508 10.128 140.072 9.708 140.792 9.432C141.524 9.144 142.37 9 143.33 9C144.17 9 144.926 9.096 145.598 9.288C146.27 9.468 146.87 9.678 147.398 9.918L146.336 12.6C145.784 12.348 145.238 12.15 144.698 12.006C144.17 11.85 143.678 11.772 143.222 11.772C142.922 11.772 142.676 11.808 142.484 11.88C142.292 11.952 142.148 12.054 142.052 12.186C141.968 12.306 141.926 12.444 141.926 12.6C141.926 12.804 142.004 12.984 142.16 13.14C142.316 13.296 142.574 13.47 142.934 13.662C143.306 13.842 143.81 14.076 144.446 14.364C145.07 14.64 145.598 14.946 146.03 15.282C146.474 15.606 146.81 15.996 147.038 16.452C147.278 16.896 147.398 17.454 147.398 18.126C147.398 18.822 147.218 19.482 146.858 20.106C146.51 20.73 145.964 21.24 145.22 21.636C144.488 22.02 143.534 22.212 142.358 22.212Z" fill="white"/>
<path d="M156.401 22.032V9.18H164.033V11.97H159.875V13.986H163.727V16.776H159.875V19.206H164.033V22.032H156.401Z" fill="white"/>
<path d="M171.914 22.032L176.108 9.126H180.734L184.982 22.032H181.184L180.554 19.62H176.378L175.73 22.032H171.914ZM177.098 16.776H179.834L179.276 14.67C179.216 14.442 179.132 14.118 179.024 13.698C178.916 13.266 178.808 12.822 178.7 12.366C178.592 11.91 178.508 11.538 178.448 11.25C178.4 11.538 178.322 11.898 178.214 12.33C178.118 12.762 178.016 13.188 177.908 13.608C177.812 14.028 177.728 14.382 177.656 14.67L177.098 16.776Z" fill="white"/>
<path d="M195.576 22.032V12.024H192.444V9.18H202.182V12.024H199.05V22.032H195.576Z" fill="white"/>
</svg>
