<svg width="32" height="33" viewBox="0 0 32 33" fill="none" xmlns="http://www.w3.org/2000/svg">
<mask id="mask0_12_26" style="mask-type:alpha" maskUnits="userSpaceOnUse" x="0" y="0" width="32" height="33">
<rect y="0.155762" width="32" height="32" fill="#D9D9D9"/>
</mask>
<g mask="url(#mask0_12_26)">
<path d="M7.79996 22.9557C8.93329 22.0891 10.2 21.4057 11.6 20.9057C13 20.4057 14.4666 20.1557 16 20.1557C17.5333 20.1557 19 20.4057 20.4 20.9057C21.8 21.4057 23.0666 22.0891 24.2 22.9557C24.9777 22.0446 25.5833 21.0113 26.0166 19.8557C26.45 18.7002 26.6666 17.4668 26.6666 16.1557C26.6666 13.2002 25.6277 10.6835 23.55 8.60572C21.4722 6.52794 18.9555 5.48905 16 5.48905C13.0444 5.48905 10.5277 6.52794 8.44996 8.60572C6.37218 10.6835 5.33329 13.2002 5.33329 16.1557C5.33329 17.4668 5.54996 18.7002 5.98329 19.8557C6.41663 21.0113 7.02218 22.0446 7.79996 22.9557ZM16 17.4891C14.6888 17.4891 13.5833 17.0391 12.6833 16.1391C11.7833 15.2391 11.3333 14.1335 11.3333 12.8224C11.3333 11.5113 11.7833 10.4057 12.6833 9.50572C13.5833 8.60572 14.6888 8.15572 16 8.15572C17.3111 8.15572 18.4166 8.60572 19.3166 9.50572C20.2166 10.4057 20.6666 11.5113 20.6666 12.8224C20.6666 14.1335 20.2166 15.2391 19.3166 16.1391C18.4166 17.0391 17.3111 17.4891 16 17.4891ZM16 29.4891C14.1555 29.4891 12.4222 29.1391 10.8 28.4391C9.17774 27.7391 7.76663 26.7891 6.56663 25.5891C5.36663 24.3891 4.41663 22.9779 3.71663 21.3557C3.01663 19.7335 2.66663 18.0002 2.66663 16.1557C2.66663 14.3113 3.01663 12.5779 3.71663 10.9557C4.41663 9.3335 5.36663 7.92239 6.56663 6.72239C7.76663 5.52239 9.17774 4.57239 10.8 3.87239C12.4222 3.17239 14.1555 2.82239 16 2.82239C17.8444 2.82239 19.5777 3.17239 21.2 3.87239C22.8222 4.57239 24.2333 5.52239 25.4333 6.72239C26.6333 7.92239 27.5833 9.3335 28.2833 10.9557C28.9833 12.5779 29.3333 14.3113 29.3333 16.1557C29.3333 18.0002 28.9833 19.7335 28.2833 21.3557C27.5833 22.9779 26.6333 24.3891 25.4333 25.5891C24.2333 26.7891 22.8222 27.7391 21.2 28.4391C19.5777 29.1391 17.8444 29.4891 16 29.4891ZM16 26.8224C17.1777 26.8224 18.2888 26.6502 19.3333 26.3057C20.3777 25.9613 21.3333 25.4668 22.2 24.8224C21.3333 24.1779 20.3777 23.6835 19.3333 23.3391C18.2888 22.9946 17.1777 22.8224 16 22.8224C14.8222 22.8224 13.7111 22.9946 12.6666 23.3391C11.6222 23.6835 10.6666 24.1779 9.79996 24.8224C10.6666 25.4668 11.6222 25.9613 12.6666 26.3057C13.7111 26.6502 14.8222 26.8224 16 26.8224ZM16 14.8224C16.5777 14.8224 17.0555 14.6335 17.4333 14.2557C17.8111 13.8779 18 13.4002 18 12.8224C18 12.2446 17.8111 11.7668 17.4333 11.3891C17.0555 11.0113 16.5777 10.8224 16 10.8224C15.4222 10.8224 14.9444 11.0113 14.5666 11.3891C14.1888 11.7668 14 12.2446 14 12.8224C14 13.4002 14.1888 13.8779 14.5666 14.2557C14.9444 14.6335 15.4222 14.8224 16 14.8224Z" fill="white"/>
</g>
</svg>
