<svg width="40" height="40" viewBox="0 0 40 40" fill="none" xmlns="http://www.w3.org/2000/svg">
<mask id="mask0_4_158" style="mask-type:alpha" maskUnits="userSpaceOnUse" x="0" y="0" width="40" height="40">
<rect width="40" height="40" fill="#D9D9D9"/>
</mask>
<g mask="url(#mask0_4_158)">
<path d="M20.0001 36.6667C19.0834 36.6667 18.2987 36.3403 17.6459 35.6875C16.9931 35.0347 16.6667 34.25 16.6667 33.3333H23.3334C23.3334 34.25 23.007 35.0347 22.3542 35.6875C21.7015 36.3403 20.9167 36.6667 20.0001 36.6667ZM6.66675 31.6667V28.3333H10.0001V16.6667C10.0001 14.3611 10.6945 12.3125 12.0834 10.5208C13.4723 8.72918 15.2779 7.55557 17.5001 7.00001V5.83334C17.5001 5.1389 17.7431 4.54862 18.2292 4.06251C18.7154 3.5764 19.3056 3.33334 20.0001 3.33334C20.6945 3.33334 21.2848 3.5764 21.7709 4.06251C22.257 4.54862 22.5001 5.1389 22.5001 5.83334V6.37501C22.1945 6.98612 21.9723 7.61112 21.8334 8.25001C21.6945 8.8889 21.639 9.54168 21.6667 10.2083C21.389 10.1528 21.1181 10.1042 20.8542 10.0625C20.5904 10.0208 20.3056 10 20.0001 10C18.1667 10 16.5973 10.6528 15.2917 11.9583C13.9862 13.2639 13.3334 14.8333 13.3334 16.6667V28.3333H26.6667V17.625C27.1667 17.8472 27.7015 18.0208 28.2709 18.1458C28.8404 18.2708 29.4167 18.3333 30.0001 18.3333V28.3333H33.3334V31.6667H6.66675ZM30.0001 15C28.6112 15 27.4306 14.5139 26.4584 13.5417C25.4862 12.5695 25.0001 11.3889 25.0001 10C25.0001 8.61112 25.4862 7.43057 26.4584 6.45834C27.4306 5.48612 28.6112 5.00001 30.0001 5.00001C31.389 5.00001 32.5695 5.48612 33.5417 6.45834C34.514 7.43057 35.0001 8.61112 35.0001 10C35.0001 11.3889 34.514 12.5695 33.5417 13.5417C32.5695 14.5139 31.389 15 30.0001 15Z" fill="#68D585"/>
</g>
</svg>
