<svg width="40" height="40" viewBox="0 0 40 40" fill="none" xmlns="http://www.w3.org/2000/svg">
<mask id="mask0_4_131" style="mask-type:alpha" maskUnits="userSpaceOnUse" x="0" y="0" width="40" height="40">
<rect width="40" height="40" fill="#D9D9D9"/>
</mask>
<g mask="url(#mask0_4_131)">
<path d="M3.33337 33.3333V28.6667C3.33337 27.75 3.56949 26.8889 4.04171 26.0833C4.51393 25.2778 5.16671 24.6667 6.00004 24.25C7.41671 23.5278 9.01393 22.9167 10.7917 22.4167C12.5695 21.9167 14.5278 21.6667 16.6667 21.6667C17.5 21.6667 18.3125 21.7083 19.1042 21.7917C19.8959 21.875 20.6667 22 21.4167 22.1667L18.5 25.0833C18.1945 25.0278 17.8959 25 17.6042 25H16.6667C14.6945 25 12.9237 25.2361 11.3542 25.7083C9.78476 26.1806 8.50004 26.6944 7.50004 27.25C7.25004 27.3889 7.04865 27.5833 6.89587 27.8333C6.7431 28.0833 6.66671 28.3611 6.66671 28.6667V30H17.0834L20.4167 33.3333H3.33337ZM25.9167 34L20.1667 28.25L22.5 25.9167L25.9167 29.3333L34.3334 20.9167L36.6667 23.25L25.9167 34ZM16.6667 20C14.8334 20 13.2639 19.3472 11.9584 18.0417C10.6528 16.7361 10 15.1667 10 13.3333C10 11.5 10.6528 9.93055 11.9584 8.625C13.2639 7.31944 14.8334 6.66666 16.6667 6.66666C18.5 6.66666 20.0695 7.31944 21.375 8.625C22.6806 9.93055 23.3334 11.5 23.3334 13.3333C23.3334 15.1667 22.6806 16.7361 21.375 18.0417C20.0695 19.3472 18.5 20 16.6667 20ZM16.6667 16.6667C17.5834 16.6667 18.3681 16.3403 19.0209 15.6875C19.6737 15.0347 20 14.25 20 13.3333C20 12.4167 19.6737 11.6319 19.0209 10.9792C18.3681 10.3264 17.5834 10 16.6667 10C15.75 10 14.9653 10.3264 14.3125 10.9792C13.6598 11.6319 13.3334 12.4167 13.3334 13.3333C13.3334 14.25 13.6598 15.0347 14.3125 15.6875C14.9653 16.3403 15.75 16.6667 16.6667 16.6667Z" fill="#68D585"/>
</g>
</svg>
