<svg width="40" height="40" viewBox="0 0 40 40" fill="none" xmlns="http://www.w3.org/2000/svg">
<mask id="mask0_4_138" style="mask-type:alpha" maskUnits="userSpaceOnUse" x="0" y="0" width="40" height="40">
<rect width="40" height="40" fill="#D9D9D9"/>
</mask>
<g mask="url(#mask0_4_138)">
<path d="M19.9999 28.3333C20.4721 28.3333 20.868 28.1736 21.1874 27.8542C21.5069 27.5347 21.6666 27.1389 21.6666 26.6667C21.6666 26.1944 21.5069 25.7986 21.1874 25.4792C20.868 25.1597 20.4721 25 19.9999 25C19.5277 25 19.1319 25.1597 18.8124 25.4792C18.493 25.7986 18.3333 26.1944 18.3333 26.6667C18.3333 27.1389 18.493 27.5347 18.8124 27.8542C19.1319 28.1736 19.5277 28.3333 19.9999 28.3333ZM19.9999 21.6667C20.4721 21.6667 20.868 21.5069 21.1874 21.1875C21.5069 20.8681 21.6666 20.4722 21.6666 20C21.6666 19.5278 21.5069 19.1319 21.1874 18.8125C20.868 18.4931 20.4721 18.3333 19.9999 18.3333C19.5277 18.3333 19.1319 18.4931 18.8124 18.8125C18.493 19.1319 18.3333 19.5278 18.3333 20C18.3333 20.4722 18.493 20.8681 18.8124 21.1875C19.1319 21.5069 19.5277 21.6667 19.9999 21.6667ZM19.9999 15C20.4721 15 20.868 14.8403 21.1874 14.5208C21.5069 14.2014 21.6666 13.8056 21.6666 13.3333C21.6666 12.8611 21.5069 12.4653 21.1874 12.1458C20.868 11.8264 20.4721 11.6667 19.9999 11.6667C19.5277 11.6667 19.1319 11.8264 18.8124 12.1458C18.493 12.4653 18.3333 12.8611 18.3333 13.3333C18.3333 13.8056 18.493 14.2014 18.8124 14.5208C19.1319 14.8403 19.5277 15 19.9999 15ZM33.3333 33.3333H6.66659C5.74992 33.3333 4.9652 33.0069 4.31242 32.3542C3.65964 31.7014 3.33325 30.9167 3.33325 30V23.3333C4.24992 23.3333 5.03464 23.0069 5.68742 22.3542C6.3402 21.7014 6.66659 20.9167 6.66659 20C6.66659 19.0833 6.3402 18.2986 5.68742 17.6458C5.03464 16.9931 4.24992 16.6667 3.33325 16.6667V10C3.33325 9.08333 3.65964 8.29861 4.31242 7.64583C4.9652 6.99305 5.74992 6.66666 6.66659 6.66666H33.3333C34.2499 6.66666 35.0346 6.99305 35.6874 7.64583C36.3402 8.29861 36.6666 9.08333 36.6666 10V16.6667C35.7499 16.6667 34.9652 16.9931 34.3124 17.6458C33.6596 18.2986 33.3333 19.0833 33.3333 20C33.3333 20.9167 33.6596 21.7014 34.3124 22.3542C34.9652 23.0069 35.7499 23.3333 36.6666 23.3333V30C36.6666 30.9167 36.3402 31.7014 35.6874 32.3542C35.0346 33.0069 34.2499 33.3333 33.3333 33.3333ZM33.3333 30V25.75C32.3055 25.1389 31.493 24.3264 30.8958 23.3125C30.2985 22.2986 29.9999 21.1944 29.9999 20C29.9999 18.8056 30.2985 17.7014 30.8958 16.6875C31.493 15.6736 32.3055 14.8611 33.3333 14.25V10H6.66659V14.25C7.69436 14.8611 8.50686 15.6736 9.10409 16.6875C9.70131 17.7014 9.99992 18.8056 9.99992 20C9.99992 21.1944 9.70131 22.2986 9.10409 23.3125C8.50686 24.3264 7.69436 25.1389 6.66659 25.75V30H33.3333Z" fill="#68D585"/>
</g>
</svg>
