<svg width="40" height="40" viewBox="0 0 40 40" fill="none" xmlns="http://www.w3.org/2000/svg">
<mask id="mask0_4_145" style="mask-type:alpha" maskUnits="userSpaceOnUse" x="0" y="0" width="40" height="40">
<rect width="40" height="40" fill="#D9D9D9"/>
</mask>
<g mask="url(#mask0_4_145)">
<path d="M14.1667 10C13.25 10 12.4653 9.67361 11.8125 9.02084C11.1597 8.36806 10.8333 7.58334 10.8333 6.66667C10.8333 5.75 11.1597 4.96528 11.8125 4.3125C12.4653 3.65972 13.25 3.33334 14.1667 3.33334C15.0833 3.33334 15.8681 3.65972 16.5208 4.3125C17.1736 4.96528 17.5 5.75 17.5 6.66667C17.5 7.58334 17.1736 8.36806 16.5208 9.02084C15.8681 9.67361 15.0833 10 14.1667 10ZM23.3333 33.3333H12.5833C11.6667 33.3333 10.8264 33.0069 10.0625 32.3542C9.29861 31.7014 8.81944 30.9167 8.625 30L5 11.6667H8.41667L12.0833 30H23.3333V33.3333ZM32.5 36.6667L27.6667 28.3333H16.0833C15.2778 28.3333 14.5764 28.0903 13.9792 27.6042C13.3819 27.1181 13 26.4722 12.8333 25.6667L11 16.75C10.6944 15.4167 11.0069 14.2361 11.9375 13.2083C12.8681 12.1806 14 11.6667 15.3333 11.6667C16.3056 11.6667 17.1875 11.9583 17.9792 12.5417C18.7708 13.125 19.2778 13.9167 19.5 14.9167L21.3333 23.3333H26.75C27.3333 23.3333 27.875 23.4861 28.375 23.7917C28.875 24.0972 29.2778 24.5 29.5833 25L35.4167 35L32.5 36.6667Z" fill="#68D585"/>
</g>
</svg>
