<svg width="40" height="40" viewBox="0 0 40 40" fill="none" xmlns="http://www.w3.org/2000/svg">
<mask id="mask0_4_152" style="mask-type:alpha" maskUnits="userSpaceOnUse" x="0" y="0" width="40" height="40">
<rect width="40" height="40" fill="#D9D9D9"/>
</mask>
<g mask="url(#mask0_4_152)">
<path d="M20 38.3333L15 33.3333H8.33333C7.41667 33.3333 6.63194 33.007 5.97917 32.3542C5.32639 31.7014 5 30.9167 5 30V6.66668C5 5.75001 5.32639 4.96529 5.97917 4.31251C6.63194 3.65973 7.41667 3.33334 8.33333 3.33334H31.6667C32.5833 3.33334 33.3681 3.65973 34.0208 4.31251C34.6736 4.96529 35 5.75001 35 6.66668V30C35 30.9167 34.6736 31.7014 34.0208 32.3542C33.3681 33.007 32.5833 33.3333 31.6667 33.3333H25L20 38.3333ZM8.33333 28.0833C9.83333 26.6111 11.5764 25.4514 13.5625 24.6042C15.5486 23.757 17.6944 23.3333 20 23.3333C22.3056 23.3333 24.4514 23.757 26.4375 24.6042C28.4236 25.4514 30.1667 26.6111 31.6667 28.0833V6.66668H8.33333V28.0833ZM20 20C21.6111 20 22.9861 19.4306 24.125 18.2917C25.2639 17.1528 25.8333 15.7778 25.8333 14.1667C25.8333 12.5556 25.2639 11.1806 24.125 10.0417C22.9861 8.90279 21.6111 8.33334 20 8.33334C18.3889 8.33334 17.0139 8.90279 15.875 10.0417C14.7361 11.1806 14.1667 12.5556 14.1667 14.1667C14.1667 15.7778 14.7361 17.1528 15.875 18.2917C17.0139 19.4306 18.3889 20 20 20ZM11.6667 30H28.3333V29.5833C27.1667 28.6111 25.875 27.882 24.4583 27.3958C23.0417 26.9097 21.5556 26.6667 20 26.6667C18.4444 26.6667 16.9583 26.9097 15.5417 27.3958C14.125 27.882 12.8333 28.6111 11.6667 29.5833V30ZM20 16.6667C19.3056 16.6667 18.7153 16.4236 18.2292 15.9375C17.7431 15.4514 17.5 14.8611 17.5 14.1667C17.5 13.4722 17.7431 12.882 18.2292 12.3958C18.7153 11.9097 19.3056 11.6667 20 11.6667C20.6944 11.6667 21.2847 11.9097 21.7708 12.3958C22.2569 12.882 22.5 13.4722 22.5 14.1667C22.5 14.8611 22.2569 15.4514 21.7708 15.9375C21.2847 16.4236 20.6944 16.6667 20 16.6667Z" fill="#68D585"/>
</g>
</svg>
