<svg width="32" height="33" viewBox="0 0 32 33" fill="none" xmlns="http://www.w3.org/2000/svg">
<mask id="mask0_12_17" style="mask-type:alpha" maskUnits="userSpaceOnUse" x="0" y="0" width="32" height="33">
<rect y="0.155762" width="32" height="32" fill="#D9D9D9"/>
</mask>
<g mask="url(#mask0_12_17)">
<path d="M12.2667 21.4891L16.0001 18.6891L19.6667 21.4891L18.2667 16.9558L22.0001 14.0225H17.4667L16.0001 9.48914L14.5334 14.0225H10.0001L13.6667 16.9558L12.2667 21.4891ZM5.33341 26.8225C4.60008 26.8225 3.9723 26.5614 3.45008 26.0391C2.92786 25.5169 2.66675 24.8891 2.66675 24.1558V19.6558C2.66675 19.4114 2.74453 19.2002 2.90008 19.0225C3.05564 18.8447 3.25564 18.7336 3.50008 18.6891C4.03341 18.5114 4.4723 18.1891 4.81675 17.7225C5.16119 17.2558 5.33341 16.7336 5.33341 16.1558C5.33341 15.578 5.16119 15.0558 4.81675 14.5891C4.4723 14.1225 4.03341 13.8002 3.50008 13.6225C3.25564 13.578 3.05564 13.4669 2.90008 13.2891C2.74453 13.1114 2.66675 12.9002 2.66675 12.6558V8.1558C2.66675 7.42247 2.92786 6.79469 3.45008 6.27247C3.9723 5.75025 4.60008 5.48914 5.33341 5.48914H26.6667C27.4001 5.48914 28.0279 5.75025 28.5501 6.27247C29.0723 6.79469 29.3334 7.42247 29.3334 8.1558V12.6558C29.3334 12.9002 29.2556 13.1114 29.1001 13.2891C28.9445 13.4669 28.7445 13.578 28.5001 13.6225C27.9667 13.8002 27.5279 14.1225 27.1834 14.5891C26.839 15.0558 26.6667 15.578 26.6667 16.1558C26.6667 16.7336 26.839 17.2558 27.1834 17.7225C27.5279 18.1891 27.9667 18.5114 28.5001 18.6891C28.7445 18.7336 28.9445 18.8447 29.1001 19.0225C29.2556 19.2002 29.3334 19.4114 29.3334 19.6558V24.1558C29.3334 24.8891 29.0723 25.5169 28.5501 26.0391C28.0279 26.5614 27.4001 26.8225 26.6667 26.8225H5.33341ZM5.33341 24.1558H26.6667V20.7558C25.8445 20.2669 25.1945 19.6169 24.7167 18.8058C24.239 17.9947 24.0001 17.1114 24.0001 16.1558C24.0001 15.2002 24.239 14.3169 24.7167 13.5058C25.1945 12.6947 25.8445 12.0447 26.6667 11.5558V8.1558H5.33341V11.5558C6.15564 12.0447 6.80564 12.6947 7.28341 13.5058C7.76119 14.3169 8.00008 15.2002 8.00008 16.1558C8.00008 17.1114 7.76119 17.9947 7.28341 18.8058C6.80564 19.6169 6.15564 20.2669 5.33341 20.7558V24.1558Z" fill="white"/>
</g>
</svg>
